<svg xmlns="http://www.w3.org/2000/svg" version="1.1" width="3300" height="2000"><g id="Notes"><style>
    text {
      font-family: monospace;
      text-anchor: middle;
    }
    text.emphasis {
      font-weight:bold;
    }
    text.lanchor {
      text-anchor: start;
    }
  </style><rect height="2200" id="artboard" fill="white" width="3300" x="0" y="0"/><line id="" style="fill:none;stroke:black;stroke-width:0.5;" x1="263" x2="3036" y1="292" y2="292"/><text class="lanchor emphasis" transform="matrix(1 0 0 1 263 322)">Weight/Scale Variations</text><text transform="matrix(1 0 0 1 559.711 322)">Ultralight</text><text transform="matrix(1 0 0 1 856.422 322)">Thin</text><text transform="matrix(1 0 0 1 1153.13 322)">Light</text><text transform="matrix(1 0 0 1 1449.84 322)">Regular</text><text transform="matrix(1 0 0 1 1746.56 322)">Medium</text><text transform="matrix(1 0 0 1 2043.27 322)">Semibold</text><text transform="matrix(1 0 0 1 2339.98 322)">Bold</text><text transform="matrix(1 0 0 1 2636.69 322)">Heavy</text><text transform="matrix(1 0 0 1 2933.4 322)">Black</text><text id="template-version" style="text-anchor: end;" transform="matrix(1 0 0 1 3036 1933)">Template v.1.0</text><text class="lanchor" transform="matrix(1 0 0 1 263 726)">Small</text><text class="lanchor" transform="matrix(1 0 0 1 263 1156)">Medium</text><text class="lanchor" transform="matrix(1 0 0 1 263 1586)">Large</text></g><g id="Guides"><g id="H-reference" style="fill:#27AAE1;stroke:none;" transform="matrix(1 0 0 1 339 696)"><path d="M 54.9316 0 L 57.666 0 L 30.5664 -70.459 L 28.0762 -70.459 L 0.976562 0 L 3.66211 0 L 12.9395 -24.4629 L 45.7031 -24.4629 Z M 29.1992 -67.0898 L 29.4434 -67.0898 L 44.8242 -26.709 L 13.8184 -26.709 Z"/></g><line id="Baseline-S" style="fill:none;stroke:#27AAE1;opacity:1;stroke-width:0.577;" x1="263" x2="3036" y1="696" y2="696"/><line id="Capline-S" style="fill:none;stroke:#27AAE1;opacity:1;stroke-width:0.577;" x1="263" x2="3036" y1="625.541" y2="625.541"/><g id="H-reference" style="fill:#27AAE1;stroke:none;" transform="matrix(1 0 0 1 339 1126)"><path d="M 54.9316 0 L 57.666 0 L 30.5664 -70.459 L 28.0762 -70.459 L 0.976562 0 L 3.66211 0 L 12.9395 -24.4629 L 45.7031 -24.4629 Z M 29.1992 -67.0898 L 29.4434 -67.0898 L 44.8242 -26.709 L 13.8184 -26.709 Z"/></g><line id="Baseline-M" style="fill:none;stroke:#27AAE1;opacity:1;stroke-width:0.577;" x1="263" x2="3036" y1="1126" y2="1126"/><line id="Capline-M" style="fill:none;stroke:#27AAE1;opacity:1;stroke-width:0.577;" x1="263" x2="3036" y1="1055.54" y2="1055.54"/><g id="H-reference" style="fill:#27AAE1;stroke:none;" transform="matrix(1 0 0 1 339 1556)"><path d="M 54.9316 0 L 57.666 0 L 30.5664 -70.459 L 28.0762 -70.459 L 0.976562 0 L 3.66211 0 L 12.9395 -24.4629 L 45.7031 -24.4629 Z M 29.1992 -67.0898 L 29.4434 -67.0898 L 44.8242 -26.709 L 13.8184 -26.709 Z"/></g><line id="Baseline-L" style="fill:none;stroke:#27AAE1;opacity:1;stroke-width:0.577;" x1="263" x2="3036" y1="1556" y2="1556"/><line id="Capline-L" style="fill:none;stroke:#27AAE1;opacity:1;stroke-width:0.577;" x1="263" x2="3036" y1="1485.54" y2="1485.54"/><rect height="119.336" id="left-margin" style="fill:darkred;stroke:none;opacity:0.4;" width="12.4512" x="1394.06" y="1030.79"/><rect height="119.336" id="right-margin" style="fill:darkgreen;stroke:none;opacity:0.4;" width="12.4512" x="1502.5112" y="1030.79"/><rect x="1406.5112" y="1045" width="96" height="96" fill="none" stroke="blue" stroke-dasharray="5"/><rect x="1394.06" y="1030.79" width="120.9024" height="119.336" fill="none" stroke="blue"/></g><g id="Symbols"><g id="Bold-L" transform="matrix(1 0 0 1 2266 1556)"><path d="M62.081 27.335 Q50.792 27.335 42.972 19.515 Q35.153 11.696 35.153 0.406 Q35.153 -10.883 42.972 -18.703 Q50.792 -26.522 62.081 -26.522 Q65.759 -26.522 68.677 -25.636 Q71.595 -24.749 73.853 -23.136 V-97.956 H119.809 V-70.544 H89.01 V0.406 Q89.01 11.696 81.19 19.515 Q73.371 27.335 62.081 27.335 Z"/></g><g id="Semibold-L" transform="matrix(1 0 0 1 1970.27 1556)"><path d="M62.642 25.372 Q51.844 25.372 44.375 17.903 Q36.905 10.433 36.905 -0.365 Q36.905 -11.163 44.375 -18.632 Q51.844 -26.102 62.642 -26.102 Q66.684 -26.102 69.91 -25.04 Q73.137 -23.978 75.605 -22.085 V-95.923 H117.986 V-70.964 H88.379 V-0.365 Q88.379 10.433 80.91 17.903 Q73.44 25.372 62.642 25.372 Z"/></g><g id="Medium-L" transform="matrix(1 0 0 1 1674.31 1556)"><path d="M63.063 23.9 Q52.634 23.9 45.427 16.693 Q38.22 9.486 38.22 -0.943 Q38.22 -11.372 45.427 -18.579 Q52.634 -25.786 63.063 -25.786 Q67.378 -25.786 70.836 -24.593 Q74.294 -23.399 76.92 -21.296 V-94.398 H116.619 V-71.28 H87.906 V-0.943 Q87.906 9.486 80.699 16.693 Q73.492 23.9 63.063 23.9 Z"/></g><g id="Regular-L" transform="matrix(1 0 0 1 1378.56 1556)"><path d="M63.371 22.82 Q53.212 22.82 46.198 15.806 Q39.184 8.791 39.184 -1.367 Q39.184 -11.526 46.198 -18.541 Q53.212 -25.555 63.371 -25.555 Q67.886 -25.555 71.514 -24.265 Q75.142 -22.975 77.884 -20.717 V-93.28 H115.616 V-71.511 H87.559 V-1.367 Q87.559 8.791 80.544 15.806 Q73.53 22.82 63.371 22.82 Z"/></g><g id="Light-L" transform="matrix(1 0 0 1 1082.77 1556)"><path d="M63.867 18.975 Q54.915 18.975 48.693 12.753 Q42.471 6.531 42.471 -2.422 Q42.471 -11.374 48.693 -17.596 Q54.915 -23.818 63.867 -23.818 Q68.134 -23.818 71.731 -22.435 Q75.329 -21.052 77.946 -18.485 V-89.435 H112.329 V-71.325 H85.264 V-2.422 Q85.264 6.531 79.042 12.753 Q72.82 18.975 63.867 18.975 Z"/></g><g id="Thin-L" transform="matrix(1 0 0 1 787.282 1556)"><path d="M64.364 15.13 Q56.617 15.13 51.188 9.7 Q45.758 4.27 45.758 -3.476 Q45.758 -11.222 51.188 -16.652 Q56.617 -22.082 64.364 -22.082 Q68.382 -22.082 71.948 -20.606 Q75.515 -19.13 78.008 -16.252 V-85.59 H109.042 V-71.139 H82.969 V-3.476 Q82.969 4.27 77.539 9.7 Q72.11 15.13 64.364 15.13 Z"/></g><g id="Ultralight-L" transform="matrix(1 0 0 1 491.205 1556)"><path d="M64.661 12.823 Q57.639 12.823 52.684 7.868 Q47.73 2.914 47.73 -4.109 Q47.73 -11.131 52.684 -16.086 Q57.639 -21.04 64.661 -21.04 Q68.531 -21.04 72.079 -19.508 Q75.626 -17.976 78.045 -14.912 V-83.282 H107.07 V-71.027 H81.593 V-4.109 Q81.593 2.914 76.638 7.868 Q71.684 12.823 64.661 12.823 Z"/></g><g id="Bold-M" transform="matrix(1 0 0 1 2281.8 1126)"><path d="M48.625 14.52 Q39.189 14.52 32.469 7.801 Q25.75 1.081 25.75 -8.355 Q25.75 -17.791 32.469 -24.51 Q39.189 -31.23 48.625 -31.23 Q50.619 -31.23 52.309 -30.917 Q54 -30.605 55.75 -29.98 V-84.98 H94.375 V-59.23 H71.5 V-8.355 Q71.5 1.081 64.781 7.801 Q58.061 14.52 48.625 14.52 Z"/></g><g id="Semibold-M" transform="matrix(1 0 0 1 1985.97 1126)"><path d="M49.223 12.455 Q40.303 12.455 33.95 6.103 Q27.598 -0.25 27.598 -9.17 Q27.598 -18.09 33.95 -24.443 Q40.302 -30.795 49.223 -30.795 Q51.6 -30.795 53.615 -30.32 Q55.63 -29.844 57.598 -28.893 V-82.915 H92.473 V-59.665 H70.848 V-9.17 Q70.848 -0.25 64.496 6.103 Q58.143 12.455 49.223 12.455 Z"/></g><g id="Medium-M" transform="matrix(1 0 0 1 1689.91 1126)"><path d="M49.671 10.906 Q41.138 10.906 35.061 4.829 Q28.984 -1.248 28.984 -9.782 Q28.984 -18.315 35.061 -24.392 Q41.138 -30.469 49.671 -30.469 Q52.336 -30.469 54.594 -29.871 Q56.853 -29.273 58.984 -28.078 V-81.366 H91.046 V-59.991 H70.359 V-9.782 Q70.359 -1.248 64.282 4.829 Q58.205 10.906 49.671 10.906 Z"/></g><g id="Regular-M" transform="matrix(1 0 0 1 1394.06 1126)"><path d="M50 9.77 Q41.75 9.77 35.875 3.895 Q30 -1.98 30 -10.23 Q30 -18.48 35.875 -24.355 Q41.75 -30.23 50 -30.23 Q52.875 -30.23 55.312 -29.542 Q57.75 -28.855 60 -27.48 V-80.23 H90 V-60.23 H70 V-10.23 Q70 -1.98 64.125 3.895 Q58.25 9.77 50 9.77 Z"/></g><g id="Light-M" transform="matrix(1 0 0 1 1098.18 1126)"><path d="M50.144 6.789 Q42.926 6.789 37.785 1.649 Q32.644 -3.492 32.644 -10.711 Q32.644 -17.929 37.785 -23.07 Q42.926 -28.211 50.144 -28.211 Q53.019 -28.211 55.529 -27.355 Q58.038 -26.499 60.144 -24.787 V-77.249 H87.356 V-60.903 H67.644 V-10.711 Q67.644 -3.492 62.504 1.649 Q57.363 6.789 50.144 6.789 Z"/></g><g id="Thin-M" transform="matrix(1 0 0 1 802.565 1126)"><path d="M50.288 3.809 Q44.101 3.809 39.695 -0.598 Q35.288 -5.004 35.288 -11.191 Q35.288 -17.379 39.695 -21.785 Q44.101 -26.192 50.288 -26.192 Q53.163 -26.192 55.745 -25.167 Q58.327 -24.143 60.288 -22.095 V-74.268 H84.712 V-61.576 H65.288 V-11.191 Q65.288 -5.004 60.882 -0.598 Q56.476 3.809 50.288 3.809 Z"/></g><g id="Ultralight-M" transform="matrix(1 0 0 1 506.415 1126)"><path d="M50.375 2.02 Q44.806 2.02 40.841 -1.946 Q36.875 -5.911 36.875 -11.48 Q36.875 -17.049 40.841 -21.014 Q44.806 -24.98 50.375 -24.98 Q53.25 -24.98 55.875 -23.855 Q58.5 -22.73 60.375 -20.48 V-72.48 H83.125 V-61.98 H63.875 V-11.48 Q63.875 -5.911 59.909 -1.946 Q55.944 2.02 50.375 2.02 Z"/></g><g id="Bold-S" transform="matrix(1 0 0 1 2294.23 696)"><path d="M39.154 1.656 Q32.301 1.656 27.492 -3.153 Q22.684 -7.961 22.684 -14.815 Q22.684 -21.668 27.492 -26.476 Q32.301 -31.285 39.154 -31.285 Q40.432 -31.285 41.617 -31.038 Q42.803 -30.792 43.987 -30.496 V-72.116 H72.095 V-53.377 H55.625 V-14.815 Q55.625 -7.961 50.816 -3.153 Q46.007 1.656 39.154 1.656 Z"/></g><g id="Semibold-S" transform="matrix(1 0 0 1 1998.1 696)"><path d="M39.626 0.026 Q33.179 0.026 28.661 -4.493 Q24.142 -9.011 24.142 -15.458 Q24.142 -21.904 28.661 -26.423 Q33.179 -30.942 39.626 -30.942 Q41.205 -30.942 42.647 -30.567 Q44.09 -30.192 45.445 -29.638 V-70.486 H70.594 V-53.72 H55.11 V-15.458 Q55.11 -9.011 50.591 -4.493 Q46.072 0.026 39.626 0.026 Z"/></g><g id="Medium-S" transform="matrix(1 0 0 1 1701.85 696)"><path d="M39.98 -1.196 Q33.838 -1.196 29.537 -5.497 Q25.235 -9.799 25.235 -15.94 Q25.235 -22.082 29.537 -26.383 Q33.838 -30.685 39.98 -30.685 Q41.786 -30.685 43.42 -30.213 Q45.054 -29.741 46.538 -28.995 V-69.264 H69.468 V-53.977 H54.724 V-15.94 Q54.724 -9.799 50.422 -5.497 Q46.121 -1.196 39.98 -1.196 Z"/></g><g id="Regular-S" transform="matrix(1 0 0 1 1405.73 696)"><path d="M40.239 -2.092 Q34.322 -2.092 30.179 -6.234 Q26.037 -10.376 26.037 -16.294 Q26.037 -22.211 30.179 -26.354 Q34.322 -30.496 40.239 -30.496 Q42.212 -30.496 43.987 -29.954 Q45.762 -29.411 47.34 -28.523 V-68.368 H68.643 V-54.166 H54.441 V-16.294 Q54.441 -10.376 50.299 -6.234 Q46.157 -2.092 40.239 -2.092 Z"/></g><g id="Light-S" transform="matrix(1 0 0 1 1109.75 696)"><path d="M40.353 -4.444 Q35.249 -4.444 31.686 -8.007 Q28.123 -11.57 28.123 -16.673 Q28.123 -21.777 31.686 -25.34 Q35.249 -28.903 40.353 -28.903 Q42.325 -28.903 44.157 -28.228 Q45.99 -27.552 47.454 -26.399 V-66.016 H66.557 V-54.697 H52.582 V-16.673 Q52.582 -11.57 49.019 -8.007 Q45.457 -4.444 40.353 -4.444 Z"/></g><g id="Thin-S" transform="matrix(1 0 0 1 814.015 696)"><path d="M40.467 -6.796 Q36.176 -6.796 33.193 -9.779 Q30.21 -12.762 30.21 -17.053 Q30.21 -21.343 33.193 -24.326 Q36.176 -27.31 40.467 -27.31 Q42.439 -27.31 44.328 -26.502 Q46.217 -25.694 47.568 -24.275 V-63.664 H64.47 V-55.228 H50.724 V-17.053 Q50.724 -12.762 47.74 -9.779 Q44.757 -6.796 40.467 -6.796 Z"/></g><g id="Ultralight-S" transform="matrix(1 0 0 1 517.792 696)"><path d="M40.535 -8.207 Q36.733 -8.207 34.097 -10.843 Q31.461 -13.478 31.461 -17.28 Q31.461 -21.082 34.097 -23.718 Q36.733 -26.354 40.535 -26.354 Q42.507 -26.354 44.431 -25.466 Q46.354 -24.578 47.636 -23 V-62.253 H63.219 V-55.547 H49.608 V-17.28 Q49.608 -13.478 46.973 -10.843 Q44.337 -8.207 40.535 -8.207 Z"/></g></g></svg>